<?xml version="1.0" standalone="no"?>
<!DOCTYPE svg PUBLIC "-//W3C//DTD SVG 20010904//EN"
 "http://www.w3.org/TR/2001/REC-SVG-20010904/DTD/svg10.dtd">
<svg version="1.0" xmlns="http://www.w3.org/2000/svg"
 width="512.000000pt" height="512.000000pt" viewBox="0 0 512.000000 512.000000"
 preserveAspectRatio="xMidYMid meet">
<metadata>
Created by potrace 1.14, written by Peter Selinger 2001-2017
</metadata>
<g transform="translate(0.000000,512.000000) scale(0.100000,-0.100000)"
fill="#000000" stroke="none">
<path d="M1835 5105 c-202 -43 -383 -184 -486 -376 -26 -48 -36 -58 -72 -69
-78 -23 -162 -75 -233 -145 -119 -118 -173 -240 -180 -404 l-4 -94 -47 -28
c-125 -73 -244 -218 -301 -366 -39 -102 -45 -136 -46 -268 -1 -88 4 -125 22
-183 l23 -73 -64 -70 c-209 -225 -243 -551 -87 -847 l29 -55 -20 -28 c-32 -45
-70 -138 -89 -218 -18 -73 -21 -226 -6 -294 22 -99 83 -222 149 -300 l40 -48
2 -122 c3 -137 21 -213 82 -328 99 -190 294 -342 483 -375 14 -2 36 -6 50 -8
14 -3 39 -5 57 -5 28 -1 38 -9 72 -58 76 -112 207 -219 336 -275 95 -42 182
-61 292 -63 156 -4 279 28 418 109 83 48 227 189 270 264 17 28 32 52 35 52 3
-1 19 -24 37 -53 71 -116 191 -226 318 -290 132 -66 235 -88 385 -82 241 10
464 132 607 332 31 43 52 63 66 64 65 2 119 11 174 28 232 74 406 253 483 496
17 54 23 97 24 191 l2 121 42 49 c23 27 62 90 87 139 101 205 98 419 -8 625
l-44 85 28 50 c35 61 75 179 88 260 9 57 8 207 -2 250 -35 149 -83 239 -185
347 l-53 56 22 69 c40 125 34 290 -17 441 -49 149 -175 304 -309 382 l-46 27
-3 89 c-5 105 -9 128 -40 205 -66 161 -219 304 -374 350 -37 11 -46 19 -68 63
-81 161 -240 299 -413 359 -275 95 -600 -20 -766 -272 -15 -22 -31 -41 -35
-41 -4 0 -19 17 -32 38 -91 137 -252 251 -413 292 -70 18 -209 20 -280 5z
m240 -202 c139 -41 270 -153 329 -284 52 -113 54 -133 55 -586 1 -233 0 -423
-3 -423 -2 0 -23 9 -47 19 -24 11 -72 23 -105 26 -50 6 -68 4 -93 -11 -17 -10
-33 -25 -37 -33 -33 -85 6 -141 108 -154 58 -8 120 -47 150 -96 l23 -36 3
-977 c1 -538 0 -978 -3 -978 -3 0 -23 16 -43 36 -128 126 -309 206 -498 221
-59 4 -78 2 -103 -13 -47 -28 -60 -76 -36 -128 18 -38 51 -56 103 -56 139 -1
291 -69 402 -179 128 -128 180 -260 176 -443 -5 -166 -61 -298 -181 -424 -143
-150 -349 -213 -547 -167 -156 36 -315 155 -388 292 -46 86 -60 93 -183 96
-110 2 -170 20 -252 76 -120 81 -210 216 -233 349 -8 47 -8 155 1 208 8 55 -1
76 -61 138 -126 130 -178 308 -136 469 17 64 50 135 62 135 5 0 24 -12 43 -26
44 -33 166 -91 221 -104 24 -6 73 -13 109 -16 54 -5 73 -3 98 12 44 26 59 79
36 127 -21 46 -31 50 -126 60 -210 23 -389 189 -444 412 -18 72 -16 184 3 251
31 102 110 208 217 290 36 28 40 35 39 75 0 26 -11 68 -27 100 -36 78 -47 131
-42 224 7 177 96 328 251 430 78 52 145 70 249 69 132 -1 226 -42 330 -143 89
-86 140 -190 157 -321 13 -99 23 -123 57 -143 37 -22 65 -21 102 0 39 23 52
68 44 156 -15 166 -111 357 -238 472 -91 83 -186 133 -327 173 -8 2 -62 5
-120 7 l-105 2 -1 29 c0 16 5 49 11 74 51 198 254 328 453 291 74 -14 125 -37
198 -93 96 -72 184 -41 184 65 0 63 -154 178 -285 212 -32 8 -60 17 -63 19 -8
9 38 64 91 111 55 48 152 102 202 111 16 3 31 7 33 9 9 9 143 1 187 -12z
m1237 -12 c32 -12 84 -41 116 -65 55 -41 132 -121 132 -138 0 -4 -12 -10 -27
-14 -106 -23 -227 -88 -286 -154 -29 -31 -37 -48 -37 -79 0 -44 34 -85 78 -94
29 -6 88 19 125 54 73 69 233 104 343 75 166 -44 279 -175 300 -349 l5 -42
-88 2 c-360 6 -681 -295 -709 -665 -6 -86 4 -121 45 -145 37 -22 65 -21 102 0
35 21 37 27 54 133 22 146 66 236 162 333 192 194 478 193 673 -3 92 -93 160
-252 160 -375 0 -58 -25 -171 -44 -200 -24 -37 -36 -88 -30 -122 5 -25 21 -45
70 -83 75 -59 134 -135 164 -210 29 -73 31 -83 36 -172 9 -184 -90 -371 -250
-473 -61 -39 -128 -61 -217 -74 -80 -11 -106 -26 -119 -67 -15 -43 -4 -79 33
-110 29 -25 36 -26 105 -20 40 3 91 10 113 16 57 16 178 73 218 104 19 14 39
26 43 26 11 0 58 -101 66 -143 4 -18 7 -70 6 -117 0 -133 -47 -241 -157 -357
-56 -60 -56 -60 -42 -203 28 -285 -223 -563 -500 -556 -103 3 -124 -9 -177
-99 -85 -144 -234 -255 -389 -291 -54 -13 -206 -11 -259 2 -200 51 -372 217
-439 424 -33 100 -37 236 -12 335 66 249 277 429 528 450 90 7 118 20 138 61
21 44 12 83 -26 118 -32 28 -34 29 -113 22 -183 -14 -372 -96 -493 -215 -23
-22 -45 -41 -48 -41 -3 0 -5 433 -5 963 0 914 1 964 19 1002 34 74 86 114 159
122 100 11 141 69 108 154 -4 8 -21 23 -37 33 -44 26 -127 15 -232 -29 -17 -7
-18 12 -15 431 3 422 4 442 26 505 56 166 189 299 351 350 76 24 197 19 273
-10z"/>
<path d="M2008 4273 c-107 -67 -7 -231 102 -167 46 28 59 77 35 128 -26 54
-85 71 -137 39z"/>
<path d="M1113 3444 c-42 -21 -56 -58 -49 -135 6 -78 13 -110 32 -169 78 -231
276 -409 517 -464 15 -4 27 -12 27 -19 0 -23 -59 -104 -96 -132 -40 -30 -130
-65 -170 -65 -34 0 -91 -27 -99 -48 -16 -39 -15 -73 1 -102 24 -39 62 -54 126
-46 207 23 362 146 429 339 17 47 29 67 41 67 35 0 181 52 236 85 32 18 77 51
101 72 36 32 44 46 46 78 3 45 -14 77 -51 93 -42 20 -74 14 -127 -24 -120 -87
-207 -115 -336 -110 -133 6 -243 55 -337 151 -85 87 -129 182 -140 300 -6 78
-19 108 -53 128 -36 21 -57 21 -98 1z"/>
<path d="M1798 2014 c-121 -21 -239 -70 -351 -146 -118 -80 -274 -266 -281
-334 -6 -73 59 -121 134 -100 16 5 42 31 70 72 45 66 134 160 186 195 99 68
238 117 354 125 41 3 87 13 102 22 55 32 60 107 12 155 -21 21 -34 25 -87 24
-34 0 -96 -6 -139 -13z"/>
<path d="M1103 1206 c-71 -60 -40 -165 52 -173 166 -15 286 -78 386 -203 65
-80 107 -185 115 -290 7 -81 27 -117 76 -132 48 -14 87 1 112 44 15 25 17 43
12 108 -20 255 -180 489 -409 599 -90 44 -149 60 -248 68 -60 5 -68 3 -96 -21z"/>
<path d="M3008 4273 c-44 -28 -56 -77 -34 -134 10 -24 63 -50 96 -47 27 3 79
39 81 55 0 5 2 17 4 28 7 34 -14 80 -44 98 -36 21 -68 21 -103 0z"/>
<path d="M3905 3441 c-30 -19 -42 -48 -50 -126 -12 -123 -58 -219 -148 -308
-56 -56 -147 -112 -197 -122 -9 -2 -33 -8 -52 -13 -51 -14 -154 -12 -217 4
-65 17 -132 50 -200 99 -73 53 -136 44 -171 -24 -21 -42 -4 -86 53 -134 64
-55 201 -122 283 -138 60 -12 62 -14 74 -53 57 -195 232 -342 430 -362 91 -9
134 16 146 84 12 62 -34 105 -123 115 -105 12 -210 86 -243 171 -13 35 -12 35
41 47 23 5 76 25 118 45 197 91 339 262 392 474 17 66 22 169 10 198 -23 55
-92 75 -146 43z"/>
<path d="M3124 2021 c-12 -5 -31 -22 -43 -37 -47 -60 5 -153 87 -155 112 -3
205 -26 302 -75 114 -57 206 -139 281 -249 43 -64 67 -81 114 -77 51 3 94 54
89 106 -4 41 -79 150 -158 229 -119 119 -282 210 -435 243 -87 18 -210 26
-237 15z"/>
<path d="M3821 1213 c-294 -60 -532 -339 -557 -653 -5 -65 -3 -84 12 -109 30
-51 83 -64 135 -34 35 21 47 50 53 128 20 247 222 459 461 482 33 3 72 13 87
21 57 33 60 111 6 157 -35 29 -84 32 -197 8z"/>
</g>
</svg>
